<?xml version="1.0" standalone="no"?>
<!DOCTYPE svg PUBLIC "-//W3C//DTD SVG 20010904//EN"
 "http://www.w3.org/TR/2001/REC-SVG-20010904/DTD/svg10.dtd">
<svg version="1.0" xmlns="http://www.w3.org/2000/svg"
 width="1024.000000pt" height="1024.000000pt" viewBox="0 0 1024.000000 1024.000000"
 preserveAspectRatio="xMidYMid meet">
<metadata>
Created by potrace 1.14, written by Peter Selinger 2001-2017
</metadata>
<g transform="translate(0.000000,1024.000000) scale(0.100000,-0.100000)"
fill="#000000" stroke="none">
<path d="M0 5120 l0 -5120 5120 0 5120 0 0 5120 0 5120 -5120 0 -5120 0 0
-5120z m7013 3757 c22 -20 38 -46 42 -67 4 -26 -24 -167 -104 -524 -61 -269
-111 -495 -111 -502 0 -7 53 -41 118 -75 257 -137 475 -287 675 -464 78 -68
97 -98 97 -152 0 -60 33 -25 -497 -535 -188 -181 -213 -190 -308 -113 -96 77
-223 153 -400 240 -681 334 -1361 427 -1690 230 -118 -71 -197 -167 -240 -296
-101 -297 32 -536 415 -741 124 -67 342 -151 530 -203 223 -63 362 -109 505
-167 663 -271 1091 -713 1230 -1268 138 -553 3 -1160 -356 -1595 -64 -78 -187
-200 -264 -262 -188 -150 -458 -284 -732 -363 -103 -29 -345 -80 -382 -80 -21
0 -12 34 -130 -485 -58 -255 -60 -260 -95 -292 l-36 -33 -580 0 -580 0 -36 33
c-58 52 -56 72 35 472 44 192 78 351 76 353 -2 2 -54 16 -117 32 -381 96 -760
285 -1068 534 -105 84 -324 306 -394 398 -66 88 -78 133 -49 186 23 42 672
537 725 554 53 16 84 0 175 -94 296 -304 686 -496 1153 -568 748 -117 1215 51
1324 475 25 97 29 166 16 244 -26 157 -127 291 -310 410 -110 73 -346 190
-511 254 -743 292 -1119 498 -1387 760 -243 239 -369 467 -444 809 -21 94 -23
128 -22 378 0 245 3 286 22 377 48 220 129 412 253 599 91 136 300 349 439
447 238 167 542 286 850 333 123 19 452 22 638 6 50 -4 92 -7 92 -6 0 20 164
716 172 733 7 13 27 33 43 43 28 17 65 18 607 18 l577 0 34 -33z"/>
</g>
</svg>
